# 3ds Max Wavefront OBJ Exporter v0.97b - (c)2007 guruware
# File Created: 09.09.2015 22:01:18

mtllib box.mtl

#
# object Group_002
#

v  11.0636 17.4656 5.4084
v  11.0636 17.4656 -6.7964
v  13.3003 17.4656 -6.7964
v  13.3003 17.4656 5.4084
v  11.0636 14.3160 -6.7964
v  13.3003 14.3160 -6.7964
v  13.3003 14.3160 5.4084
v  13.3003 1.9685 12.0393
v  13.3003 1.9685 -12.6211
v  13.3003 18.8976 -12.6211
v  13.3003 18.8976 12.0393
v  49.3780 17.4656 5.4084
v  49.3780 1.9685 12.0393
v  49.3780 18.8976 12.0393
v  49.3780 18.8976 -12.6211
v  49.3780 17.4656 -6.7964
v  49.3780 14.3160 -6.7964
v  49.3780 1.9685 -12.6211
v  49.3780 14.3160 5.4084
v  11.0636 0.0000 14.2760
v  11.0636 0.0000 -14.8578
v  51.6148 0.0000 -14.8578
v  51.6148 0.0000 14.2760
v  51.6148 17.4656 5.4084
v  51.6148 14.3160 5.4084
v  51.6148 18.8976 14.2760
v  51.6148 14.3160 -6.7964
v  51.6148 17.4656 -6.7964
v  51.6148 18.8976 -14.8578
v  11.0636 18.8976 14.2760
v  11.0636 18.8976 -14.8578
v  11.0636 14.3160 5.4084
v  22.6395 13.7844 12.0393
v  39.2459 13.7844 12.0393
v  18.5393 18.8976 12.0393
v  43.5645 18.8976 12.0393
v  18.5393 18.8976 14.2760
v  18.5393 18.8976 -14.8578
v  18.5393 18.8976 -12.6211
v  39.2459 13.7844 14.2760
v  43.5645 18.8976 14.2760
v  22.6395 13.7844 14.2760
v  43.5645 18.8976 -14.8578
v  43.5645 18.8976 -12.6211
v  18.5393 1.9685 -12.6211
v  43.5645 1.9685 -12.6211
v  39.2459 13.7844 -12.6211
v  22.6395 13.7844 -12.6211
v  22.6395 13.7844 -14.8578
v  39.2459 13.7844 -14.8578
# 50 vertices

vn -0.0000 -1.0000 -0.0000
vn -0.0000 -0.0000 1.0000
vn 1.0000 -0.0000 0.0000
vn -1.0000 0.0000 -0.0000
vn 0.0000 0.0000 -1.0000
vn 0.0000 1.0000 -0.0000
vn -0.7640 0.6452 -0.0000
vn 0.7802 0.6256 -0.0000
vn 0.7640 -0.6452 0.0000
vn 0.0000 -1.0000 0.0000
vn -0.7802 -0.6256 0.0000
# 11 vertex normals

vt 1.5563 -11.4330 0.0000
vt 1.4013 -11.4330 0.0000
vt 1.4013 -11.4614 0.0000
vt 1.5563 -11.4614 0.0000
vt 11.4330 2.6299 0.0000
vt 11.4614 2.6299 0.0000
vt 11.4614 2.6699 0.0000
vt 11.4330 2.6699 0.0000
vt -1.5563 2.6299 0.0000
vt -1.6405 2.4731 0.0000
vt -1.3274 2.4731 0.0000
vt -1.4013 2.6299 0.0000
vt -1.4013 2.6699 0.0000
vt -1.3274 2.6881 0.0000
vt -1.5563 2.6699 0.0000
vt -1.6405 2.6881 0.0000
vt 1.5563 2.6699 0.0000
vt 1.6405 2.4731 0.0000
vt 1.6405 2.6881 0.0000
vt 1.3274 2.6881 0.0000
vt 1.4013 2.6699 0.0000
vt 1.4013 2.6299 0.0000
vt 1.3274 2.4731 0.0000
vt 1.5563 2.6299 0.0000
vt 1.6690 -11.4330 0.0000
vt 1.2990 -11.4330 0.0000
vt 1.2990 -11.9480 0.0000
vt 1.6690 -11.9480 0.0000
vt -11.9480 2.6699 0.0000
vt -11.9480 2.6299 0.0000
vt -11.9196 2.6299 0.0000
vt -11.9196 2.6699 0.0000
vt -1.6690 2.6881 0.0000
vt -1.6690 2.4481 0.0000
vt -1.2990 2.4481 0.0000
vt -1.2990 2.6881 0.0000
vt 1.6690 2.6881 0.0000
vt 1.2990 2.6881 0.0000
vt 1.2990 2.4481 0.0000
vt 1.6690 2.4481 0.0000
vt -11.5800 2.6231 0.0000
vt -11.7909 2.6231 0.0000
vt -11.4614 2.4731 0.0000
vt -11.4614 2.6881 0.0000
vt -11.5279 2.6881 0.0000
vt -11.9196 2.4731 0.0000
vt -11.9196 2.6881 0.0000
vt -11.8457 2.6881 0.0000
vt -1.6405 -11.4614 0.0000
vt -1.2990 -11.4330 0.0000
vt -1.6690 -11.4330 0.0000
vt -1.6690 -11.5279 0.0000
vt -1.6405 -11.5279 0.0000
vt -1.3274 -11.4614 0.0000
vt -1.2990 -11.5279 0.0000
vt -1.3274 -11.5279 0.0000
vt -1.4013 -11.9196 0.0000
vt -1.5563 -11.9196 0.0000
vt -1.5563 -11.9480 0.0000
vt -1.4013 -11.9480 0.0000
vt 1.5563 -11.9196 0.0000
vt 1.4013 -11.9196 0.0000
vt 1.4013 -11.9480 0.0000
vt 1.5563 -11.9480 0.0000
vt 11.4330 2.4481 0.0000
vt 11.9480 2.4481 0.0000
vt 11.9480 2.6881 0.0000
vt 11.7909 2.6231 0.0000
vt 11.8457 2.6881 0.0000
vt 11.5800 2.6231 0.0000
vt 11.4330 2.6881 0.0000
vt 11.5279 2.6881 0.0000
vt -1.6405 -11.9196 0.0000
vt -1.6405 -11.8457 0.0000
vt -1.6690 -11.8457 0.0000
vt -1.6690 -11.9480 0.0000
vt -1.3274 -11.9196 0.0000
vt -1.2990 -11.9480 0.0000
vt -1.2990 -11.8457 0.0000
vt -1.3274 -11.8457 0.0000
vt -1.6405 -11.7909 0.0000
vt -1.6405 -11.5800 0.0000
vt -1.6690 -11.5800 0.0000
vt -1.6690 -11.7909 0.0000
vt -11.4614 2.6699 0.0000
vt -11.4614 2.6299 0.0000
vt -11.4330 2.6299 0.0000
vt -11.4330 2.6699 0.0000
vt 1.6405 9.6120 0.0000
vt 1.6690 9.6120 0.0000
vt 1.6690 9.6970 0.0000
vt 1.6405 9.6970 0.0000
vt 11.9196 2.6299 0.0000
vt 11.9480 2.6299 0.0000
vt 11.9480 2.6699 0.0000
vt 11.9196 2.6699 0.0000
vt 11.4614 2.4731 0.0000
vt 11.5279 2.4731 0.0000
vt 11.4614 2.6881 0.0000
vt 11.8457 2.4731 0.0000
vt 11.9196 2.4731 0.0000
vt 11.9196 2.6881 0.0000
vt -1.4013 -11.4330 0.0000
vt -1.5563 -11.4330 0.0000
vt -1.5563 -11.4614 0.0000
vt -1.4013 -11.4614 0.0000
vt -11.4330 2.4481 0.0000
vt -11.4330 2.6881 0.0000
vt -11.9480 2.6881 0.0000
vt -11.9480 2.4481 0.0000
vt -1.6690 -5.1146 0.0000
vt -1.6690 -5.1978 0.0000
vt -1.6405 -5.1978 0.0000
vt -1.6405 -5.1146 0.0000
vt 0.0000 0.0000 0.0000
# 115 texture coords

g Group_002
usemtl wire_177028149
s off
f 1/1/1 2/2/1 3/3/1 4/4/1 
f 5/5/2 6/6/2 3/7/2 2/8/2 
f 7/9/3 8/10/3 9/11/3 6/12/3 
f 3/13/3 6/12/3 9/11/3 10/14/3 
f 4/15/3 3/13/3 10/14/3 11/16/3 
f 4/15/3 11/16/3 8/10/3 7/9/3 
f 12/17/4 13/18/4 14/19/4 15/20/4 
f 16/21/4 12/17/4 15/20/4 17/22/4 
f 17/22/4 15/20/4 18/23/4 19/24/4 
f 19/24/4 18/23/4 13/18/4 12/17/4 
f 20/25/1 21/26/1 22/27/1 23/28/1 
f 24/29/5 25/30/5 19/31/5 12/32/5 
f 26/33/3 23/34/3 22/35/3 25/9/3 
f 27/12/3 25/9/3 22/35/3 28/13/3 
f 28/13/3 22/35/3 29/36/3 24/15/3 
f 24/15/3 29/36/3 26/33/3 25/9/3 
f 1/17/4 30/37/4 31/38/4 2/21/4 
f 5/22/4 2/21/4 31/38/4 21/39/4 
f 32/24/4 5/22/4 21/39/4 30/37/4 
f 30/37/4 21/39/4 20/40/4 
f 32/24/4 30/37/4 1/17/4 
f 33/41/5 34/42/5 8/43/5 11/44/5 
f 33/41/5 11/44/5 35/45/5 
f 13/46/5 8/43/5 34/42/5 14/47/5 
f 14/47/5 34/42/5 36/48/5 
f 11/49/6 31/50/6 30/51/6 37/52/6 
f 11/49/6 37/52/6 35/53/6 
f 31/50/6 11/49/6 10/54/6 38/55/6 
f 38/55/6 10/54/6 39/56/6 
f 17/57/6 19/58/6 25/59/6 27/60/6 
f 12/61/1 16/62/1 28/63/1 24/64/1 
f 20/65/2 23/66/2 26/67/2 40/68/2 
f 40/68/2 26/67/2 41/69/2 
f 20/65/2 40/68/2 42/70/2 30/71/2 
f 30/71/2 42/70/2 37/72/2 
f 14/73/6 36/74/6 41/75/6 26/76/6 
f 15/77/6 14/73/6 26/76/6 29/78/6 
f 15/77/6 29/78/6 43/79/6 44/80/6 
f 9/54/6 8/49/6 13/73/6 45/56/6 
f 46/80/6 45/56/6 13/73/6 18/77/6 
f 34/81/6 33/82/6 42/83/6 40/84/6 
f 4/85/5 7/86/5 32/87/5 1/88/5 
f 34/89/7 40/90/7 41/91/7 36/92/7 
f 17/93/2 27/94/2 28/95/2 16/96/2 
f 9/97/2 45/98/2 39/72/2 10/99/2 
f 46/100/2 18/101/2 15/102/2 44/69/2 
f 5/103/6 32/104/6 7/105/6 6/106/6 
f 47/68/2 45/98/2 46/100/2 44/69/2 
f 45/98/2 47/68/2 48/70/2 39/72/2 
f 49/41/5 50/42/5 21/107/5 31/108/5 
f 49/41/5 31/108/5 38/45/5 
f 21/107/5 50/42/5 29/109/5 22/110/5 
f 29/109/5 50/42/5 43/48/5 
f 37/111/8 42/112/8 33/113/8 35/114/8 
f 44/115/9 47/115/9 50/115/9 43/115/9 
f 48/115/10 49/115/10 50/115/10 47/115/10 
f 49/115/11 48/115/11 39/115/11 38/115/11 
# 47 polygons - 10 triangles

