# 3ds Max Wavefront OBJ Exporter v0.97b - (c)2007 guruware
# File Created: 21.09.2015 05:42:20

mtllib box.mtl

#
# object Group_003
#

v  65.5670 13.6123 -22.7689
v  114.0025 13.6123 -22.7689
v  124.3866 80.2781 -33.1530
v  55.1829 80.2781 -33.1530
v  124.1270 53.0180 -32.8934
v  124.1270 53.0180 35.7911
v  123.0239 45.9362 34.6880
v  123.0239 45.9362 -31.7903
v  54.8220 53.0180 36.4116
v  124.7475 53.0180 36.4116
v  129.5563 83.8904 41.2204
v  50.0132 83.8904 41.2204
v  114.0025 13.6123 25.6666
v  65.5670 13.6123 25.6666
v  55.1829 80.2781 36.0507
v  124.3866 80.2781 36.0507
v  55.1829 83.8904 36.0507
v  124.3866 83.8904 36.0507
v  56.5456 45.9362 -31.7903
v  55.4425 53.0180 -32.8934
v  56.5456 45.9362 34.6880
v  55.4425 53.0180 35.7911
v  124.3866 83.8904 -33.1530
v  50.0132 83.8904 -38.3227
v  129.5563 83.8904 -38.3227
v  55.1829 83.8904 -33.1530
v  124.7475 53.0180 -33.5139
v  61.5226 10.0000 29.7110
v  61.5226 10.0000 -26.8133
v  118.0469 10.0000 -26.8133
v  118.0469 10.0000 29.7110
v  54.8220 53.0180 -33.5139
v  55.9251 45.9362 -32.4108
v  123.6444 45.9362 -32.4108
v  123.6444 45.9362 35.3085
v  55.9251 45.9362 35.3085
# 36 vertices

vn 0.0000 0.1221 0.9925
vn 0.9925 -0.1221 -0.0000
vn 0.0000 -0.1221 0.9925
vn 0.0000 0.1221 -0.9925
vn 0.9925 0.1221 -0.0000
vn 0.0000 0.0000 -1.0000
vn 0.0000 -0.1221 -0.9925
vn -0.9925 0.1221 -0.0000
vn -1.0000 0.0000 -0.0000
vn 0.0000 1.0000 -0.0000
vn 0.0000 -1.0000 -0.0000
vn 1.0000 0.0000 -0.0000
vn -0.9925 -0.1221 -0.0000
vn 0.0000 0.0000 1.0000
# 14 vertex normals

vt 0.0000 0.0000 0.0000
# 1 texture coords

g Group_003
usemtl wire_028089177
s off
f 1/1/1 2/1/1 3/1/1 4/1/1 
f 5/1/2 6/1/2 7/1/2 8/1/2 
f 9/1/3 10/1/3 11/1/3 12/1/3 
f 13/1/4 14/1/4 15/1/4 16/1/4 
f 4/1/5 15/1/5 14/1/5 1/1/5 
f 16/1/6 15/1/6 17/1/6 18/1/6 
f 8/1/7 19/1/7 20/1/7 5/1/7 
f 21/1/3 7/1/3 6/1/3 22/1/3 
f 13/1/8 16/1/8 3/1/8 2/1/8 
f 16/1/9 18/1/9 23/1/9 3/1/9 
f 17/1/10 24/1/10 12/1/10 11/1/10 
f 18/1/10 17/1/10 11/1/10 23/1/10 
f 23/1/10 11/1/10 25/1/10 26/1/10 
f 26/1/10 25/1/10 24/1/10 17/1/10 
f 25/1/2 11/1/2 10/1/2 27/1/2 
f 28/1/11 29/1/11 30/1/11 31/1/11 
f 27/1/7 32/1/7 24/1/7 25/1/7 
f 30/1/7 29/1/7 33/1/7 34/1/7 
f 34/1/2 35/1/2 31/1/2 30/1/2 
f 17/1/12 15/1/12 4/1/12 26/1/12 
f 20/1/11 9/1/11 32/1/11 27/1/11 
f 5/1/11 20/1/11 27/1/11 6/1/11 
f 6/1/11 27/1/11 10/1/11 22/1/11 
f 22/1/11 10/1/11 9/1/11 20/1/11 
f 21/1/13 22/1/13 20/1/13 19/1/13 
f 28/1/3 31/1/3 35/1/3 36/1/3 
f 28/1/13 36/1/13 33/1/13 29/1/13 
f 21/1/10 33/1/10 36/1/10 35/1/10 
f 7/1/10 21/1/10 35/1/10 8/1/10 
f 8/1/10 35/1/10 34/1/10 19/1/10 
f 19/1/10 34/1/10 33/1/10 21/1/10 
f 9/1/13 12/1/13 24/1/13 32/1/13 
f 4/1/14 3/1/14 23/1/14 26/1/14 
f 1/1/10 14/1/10 13/1/10 2/1/10 
# 34 polygons

#
# object Group_002
#

v  -116.2456 13.6123 -22.7689
v  -67.8101 13.6123 -22.7689
v  -57.4260 80.2781 -33.1530
v  -126.6297 80.2781 -33.1530
v  -57.6857 53.0180 -32.8934
v  -57.6857 53.0180 35.7911
v  -58.7887 45.9362 34.6880
v  -58.7887 45.9362 -31.7903
v  -126.9906 53.0180 36.4116
v  -57.0651 53.0180 36.4116
v  -52.2564 83.8904 41.2204
v  -131.7994 83.8904 41.2204
v  -67.8101 13.6123 25.6666
v  -116.2456 13.6123 25.6666
v  -126.6297 80.2781 36.0507
v  -57.4260 80.2781 36.0507
v  -126.6297 83.8904 36.0507
v  -57.4260 83.8904 36.0507
v  -125.2670 45.9362 -31.7903
v  -126.3701 53.0180 -32.8934
v  -125.2670 45.9362 34.6880
v  -126.3701 53.0180 35.7911
v  -57.4260 83.8904 -33.1530
v  -131.7994 83.8904 -38.3227
v  -52.2564 83.8904 -38.3227
v  -126.6297 83.8904 -33.1530
v  -57.0651 53.0180 -33.5139
v  -120.2900 10.0000 29.7110
v  -120.2900 10.0000 -26.8133
v  -63.7658 10.0000 -26.8133
v  -63.7658 10.0000 29.7110
v  -126.9906 53.0180 -33.5139
v  -125.8875 45.9362 -32.4108
v  -58.1682 45.9362 -32.4108
v  -58.1682 45.9362 35.3085
v  -125.8875 45.9362 35.3085
# 36 vertices

vn 0.0000 0.1221 0.9925
vn 0.9925 -0.1221 -0.0000
vn 0.0000 -0.1221 0.9925
vn 0.0000 0.1221 -0.9925
vn 0.9925 0.1221 -0.0000
vn 0.0000 0.0000 -1.0000
vn 0.0000 -0.1221 -0.9925
vn -0.9925 0.1221 -0.0000
vn -1.0000 0.0000 -0.0000
vn 0.0000 1.0000 -0.0000
vn 0.0000 -1.0000 -0.0000
vn 1.0000 0.0000 -0.0000
vn -0.9925 -0.1221 -0.0000
vn 0.0000 0.0000 1.0000
# 14 vertex normals

vt 0.0000 0.0000 0.0000
# 1 texture coords

g Group_002
usemtl wire_134006006
s off
f 37/2/15 38/2/15 39/2/15 40/2/15 
f 41/2/16 42/2/16 43/2/16 44/2/16 
f 45/2/17 46/2/17 47/2/17 48/2/17 
f 49/2/18 50/2/18 51/2/18 52/2/18 
f 40/2/19 51/2/19 50/2/19 37/2/19 
f 52/2/20 51/2/20 53/2/20 54/2/20 
f 44/2/21 55/2/21 56/2/21 41/2/21 
f 57/2/17 43/2/17 42/2/17 58/2/17 
f 49/2/22 52/2/22 39/2/22 38/2/22 
f 52/2/23 54/2/23 59/2/23 39/2/23 
f 53/2/24 60/2/24 48/2/24 47/2/24 
f 54/2/24 53/2/24 47/2/24 59/2/24 
f 59/2/24 47/2/24 61/2/24 62/2/24 
f 62/2/24 61/2/24 60/2/24 53/2/24 
f 61/2/16 47/2/16 46/2/16 63/2/16 
f 64/2/25 65/2/25 66/2/25 67/2/25 
f 63/2/21 68/2/21 60/2/21 61/2/21 
f 66/2/21 65/2/21 69/2/21 70/2/21 
f 70/2/16 71/2/16 67/2/16 66/2/16 
f 53/2/26 51/2/26 40/2/26 62/2/26 
f 56/2/25 45/2/25 68/2/25 63/2/25 
f 41/2/25 56/2/25 63/2/25 42/2/25 
f 42/2/25 63/2/25 46/2/25 58/2/25 
f 58/2/25 46/2/25 45/2/25 56/2/25 
f 57/2/27 58/2/27 56/2/27 55/2/27 
f 64/2/17 67/2/17 71/2/17 72/2/17 
f 64/2/27 72/2/27 69/2/27 65/2/27 
f 57/2/24 69/2/24 72/2/24 71/2/24 
f 43/2/24 57/2/24 71/2/24 44/2/24 
f 44/2/24 71/2/24 70/2/24 55/2/24 
f 55/2/24 70/2/24 69/2/24 57/2/24 
f 45/2/27 48/2/27 60/2/27 68/2/27 
f 40/2/28 39/2/28 59/2/28 62/2/28 
f 37/2/24 50/2/24 49/2/24 38/2/24 
# 34 polygons

#
# object Group_001
#

v  -25.3392 13.6123 -22.7689
v  23.0963 13.6123 -22.7689
v  33.4803 80.2781 -33.1530
v  -35.7233 80.2781 -33.1530
v  33.2207 53.0180 -32.8934
v  33.2207 53.0180 35.7911
v  32.1176 45.9362 34.6880
v  32.1176 45.9362 -31.7903
v  -36.0842 53.0180 36.4116
v  33.8412 53.0180 36.4116
v  38.6500 83.8904 41.2204
v  -40.8930 83.8904 41.2204
v  23.0963 13.6123 25.6666
v  -25.3392 13.6123 25.6666
v  -35.7233 80.2781 36.0507
v  33.4803 80.2781 36.0507
v  -35.7233 83.8904 36.0507
v  33.4803 83.8904 36.0507
v  -34.3606 45.9362 -31.7903
v  -35.4637 53.0180 -32.8934
v  -34.3606 45.9362 34.6880
v  -35.4637 53.0180 35.7911
v  33.4803 83.8904 -33.1530
v  -40.8930 83.8904 -38.3227
v  38.6500 83.8904 -38.3227
v  -35.7233 83.8904 -33.1530
v  33.8412 53.0180 -33.5139
v  -29.3836 10.0000 29.7110
v  -29.3836 10.0000 -26.8133
v  27.1406 10.0000 -26.8133
v  27.1406 10.0000 29.7110
v  -36.0842 53.0180 -33.5139
v  -34.9812 45.9362 -32.4108
v  32.7382 45.9362 -32.4108
v  32.7382 45.9362 35.3085
v  -34.9812 45.9362 35.3085
# 36 vertices

vn 0.0000 0.1221 0.9925
vn 0.9925 -0.1221 -0.0000
vn 0.0000 -0.1221 0.9925
vn 0.0000 0.1221 -0.9925
vn 0.9925 0.1221 -0.0000
vn 0.0000 0.0000 -1.0000
vn 0.0000 -0.1221 -0.9925
vn -0.9925 0.1221 -0.0000
vn -1.0000 0.0000 -0.0000
vn 0.0000 1.0000 -0.0000
vn 0.0000 -1.0000 -0.0000
vn 1.0000 0.0000 -0.0000
vn -0.9925 -0.1221 -0.0000
vn 0.0000 0.0000 1.0000
# 14 vertex normals

vt 0.0000 0.0000 0.0000
# 1 texture coords

g Group_001
usemtl wire_229166215
s off
f 73/3/29 74/3/29 75/3/29 76/3/29 
f 77/3/30 78/3/30 79/3/30 80/3/30 
f 81/3/31 82/3/31 83/3/31 84/3/31 
f 85/3/32 86/3/32 87/3/32 88/3/32 
f 76/3/33 87/3/33 86/3/33 73/3/33 
f 88/3/34 87/3/34 89/3/34 90/3/34 
f 80/3/35 91/3/35 92/3/35 77/3/35 
f 93/3/31 79/3/31 78/3/31 94/3/31 
f 85/3/36 88/3/36 75/3/36 74/3/36 
f 88/3/37 90/3/37 95/3/37 75/3/37 
f 89/3/38 96/3/38 84/3/38 83/3/38 
f 90/3/38 89/3/38 83/3/38 95/3/38 
f 95/3/38 83/3/38 97/3/38 98/3/38 
f 98/3/38 97/3/38 96/3/38 89/3/38 
f 97/3/30 83/3/30 82/3/30 99/3/30 
f 100/3/39 101/3/39 102/3/39 103/3/39 
f 99/3/35 104/3/35 96/3/35 97/3/35 
f 102/3/35 101/3/35 105/3/35 106/3/35 
f 106/3/30 107/3/30 103/3/30 102/3/30 
f 89/3/40 87/3/40 76/3/40 98/3/40 
f 92/3/39 81/3/39 104/3/39 99/3/39 
f 77/3/39 92/3/39 99/3/39 78/3/39 
f 78/3/39 99/3/39 82/3/39 94/3/39 
f 94/3/39 82/3/39 81/3/39 92/3/39 
f 93/3/41 94/3/41 92/3/41 91/3/41 
f 100/3/31 103/3/31 107/3/31 108/3/31 
f 100/3/41 108/3/41 105/3/41 101/3/41 
f 93/3/38 105/3/38 108/3/38 107/3/38 
f 79/3/38 93/3/38 107/3/38 80/3/38 
f 80/3/38 107/3/38 106/3/38 91/3/38 
f 91/3/38 106/3/38 105/3/38 93/3/38 
f 81/3/41 84/3/41 96/3/41 104/3/41 
f 76/3/42 75/3/42 95/3/42 98/3/42 
f 73/3/38 86/3/38 85/3/38 74/3/38 
# 34 polygons

#
# object Layer0_001
#

v  -132.8618 10.0000 -52.8618
v  -132.8618 10.0000 52.8618
v  132.8619 10.0000 52.8618
v  132.8619 10.0000 -52.8618
v  140.0000 0.0000 -60.0000
v  -139.9999 0.0000 -60.0000
v  -139.9999 20.0000 -60.0000
v  140.0000 20.0000 -60.0000
v  -139.9999 0.0000 60.0000
v  -139.9999 20.0000 60.0000
v  140.0000 0.0000 60.0000
v  140.0000 20.0000 60.0000
v  -132.8618 20.0000 52.8618
v  132.8619 20.0000 52.8618
v  132.8619 20.0000 -52.8618
v  -132.8618 20.0000 -52.8618
v  -132.8618 0.0000 52.8618
v  -132.8618 0.0000 -52.8618
v  132.8619 0.0000 -52.8618
v  132.8619 0.0000 52.8618
# 20 vertices

vn 0.0000 1.0000 -0.0000
vn 0.0000 0.0000 -1.0000
vn -1.0000 0.0000 -0.0000
vn 0.0000 0.0000 1.0000
vn 1.0000 0.0000 -0.0000
vn 0.0000 -1.0000 -0.0000
# 6 vertex normals

vt 4.6166 3.3997 0.0000
vt 4.6166 2.7391 0.0000
vt 6.1797 2.7391 0.0000
vt 6.1797 3.3997 0.0000
vt -6.2217 0.0625 0.0000
vt -4.5746 0.0625 0.0000
vt -4.5746 0.1875 0.0000
vt -6.2217 0.1875 0.0000
vt -2.5366 0.0625 0.0000
vt -2.5366 0.1875 0.0000
vt -3.2425 0.1875 0.0000
vt -3.2425 0.0625 0.0000
vt 4.5746 0.0625 0.0000
vt 6.2217 0.0625 0.0000
vt 6.2217 0.1875 0.0000
vt 4.5746 0.1875 0.0000
vt 2.5366 0.1875 0.0000
vt 2.5366 0.0625 0.0000
vt 3.2425 0.0625 0.0000
vt 3.2425 0.1875 0.0000
vt 4.5746 3.4443 0.0000
vt 4.5746 2.6945 0.0000
vt 6.2217 2.6945 0.0000
vt 6.2217 3.4443 0.0000
vt 2.5786 0.1875 0.0000
vt 2.5786 0.1250 0.0000
vt 3.2005 0.1250 0.0000
vt 3.2005 0.1875 0.0000
vt 4.6166 0.1250 0.0000
vt 6.1797 0.1250 0.0000
vt 6.1797 0.1875 0.0000
vt 4.6166 0.1875 0.0000
vt -2.5786 0.1250 0.0000
vt -2.5786 0.1875 0.0000
vt -3.2005 0.1875 0.0000
vt -3.2005 0.1250 0.0000
vt -6.1797 0.1250 0.0000
vt -4.6166 0.1250 0.0000
vt -4.6166 0.1875 0.0000
vt -6.1797 0.1875 0.0000
vt -4.6166 2.7391 0.0000
vt -4.6166 3.3997 0.0000
vt -6.1797 3.3997 0.0000
vt -6.1797 2.7391 0.0000
vt 2.5786 0.0625 0.0000
vt 3.2005 0.0625 0.0000
vt -4.5746 2.6945 0.0000
vt -4.5746 3.4443 0.0000
vt -6.2217 3.4443 0.0000
vt -6.2217 2.6945 0.0000
# 50 texture coords

g Layer0_001
usemtl wire_006134006
s off
f 109/4/43 110/5/43 111/6/43 112/7/43 
f 113/8/44 114/9/44 115/10/44 116/11/44 
f 117/12/45 118/13/45 115/14/45 114/15/45 
f 117/16/46 119/17/46 120/18/46 118/19/46 
f 120/20/47 119/21/47 113/22/47 116/23/47 
f 121/5/43 115/24/43 118/25/43 120/26/43 
f 122/6/43 121/5/43 120/26/43 123/7/43 
f 123/7/43 120/26/43 116/27/43 124/4/43 
f 124/4/43 116/27/43 115/24/43 121/5/43 
f 121/28/47 110/29/47 109/30/47 124/31/47 
f 109/32/46 112/33/46 123/34/46 124/35/46 
f 111/36/45 122/37/45 123/38/45 112/39/45 
f 111/40/44 110/41/44 121/42/44 122/43/44 
f 125/44/48 126/45/48 127/46/48 128/47/48 
f 110/29/47 125/48/47 126/49/47 109/30/47 
f 126/45/48 117/50/48 114/51/48 113/52/48 
f 127/46/48 126/45/48 113/52/48 128/47/48 
f 128/47/48 113/52/48 119/53/48 125/44/48 
f 125/44/48 119/53/48 117/50/48 126/45/48 
# 19 polygons

